<svg width="82" height="82" viewBox="0 0 82 82" fill="none" xmlns="http://www.w3.org/2000/svg">
<g id="ball">
<path d="M13.4889 10.8077C17.0512 7.67322 22.9617 3.98322 26.6308 2.60773C30.2998 1.23225 36.3037 0.0551542 39.9728 0.00225096C43.6418 -0.0506523 49.6457 0.835477 53.3147 1.9729C57.2907 3.2029 62.921 6.54903 67.2304 10.2655C72.4071 14.7093 75.5558 18.8623 78.2376 24.761C80.8926 30.6068 82 35.1564 82 40.3013C82 44.2955 80.8259 50.6968 79.3983 54.519C77.9707 58.3413 74.2216 64.3458 71.0596 67.8771C67.9109 71.3952 62.3206 75.7464 58.6515 77.5319C54.6489 79.4761 48.525 81.0632 43.3083 81.4997C36.237 82.0948 33.155 81.6584 26.6308 79.1587C21.5341 77.2145 16.4242 73.9213 12.555 70.099C9.2195 66.8058 5.03012 61.1319 3.25564 57.4948C0.70732 52.3103 0.0135368 48.7393 0.00019482 40.9626C-0.0131472 32.9345 0.653952 29.6545 3.49579 23.769C5.55046 19.55 9.73984 14.101 13.4889 10.8077Z" fill="#BB0101"/>
<path d="M47.2708 18.8093C48.0313 16.4419 49.9926 13.6116 51.647 12.5139C53.3014 11.4161 56.5969 10.53 58.9851 10.53C61.6535 10.5432 64.7355 11.7732 66.9903 13.7306C69.8455 16.2171 70.6593 18.0951 70.6593 22.2216C70.6593 26.0703 69.7521 28.4642 67.3238 30.9771C64.9623 33.4106 62.6274 34.4158 59.3186 34.3893C56.757 34.3761 53.3014 33.4768 51.647 32.379C49.9926 31.2813 48.0313 28.7419 47.2708 26.7448C46.3235 24.2451 46.3235 21.7587 47.2708 18.8093Z" fill="#CF3838" fill-opacity="0.97"/>
<path d="M7.69851 59.8093C6.73789 57.4419 6.28426 54.3206 6.68452 52.8658C7.13815 51.2787 8.59243 50.1942 10.3536 50.1677C11.9679 50.128 14.0226 50.8687 14.9165 51.821C15.7971 52.76 17.1313 55.6168 17.8518 58.1561C18.7056 61.1187 18.719 63.6184 17.9051 65.0997C17.198 66.3693 17.0779 67.6655 17.6249 67.9564C18.172 68.2606 18.5722 69.9006 18.5189 71.5935C18.4521 73.2997 17.8784 74.3974 17.238 74.0271C16.5976 73.6568 16.0506 72.3474 16.0239 71.091C15.9839 69.8345 14.4896 67.758 12.7018 66.4619C10.9139 65.1658 8.65914 62.1768 7.69851 59.8093Z" fill="#CF3838" fill-opacity="0.97"/>
<path d="M22.6282 72.7045C22.268 72.7045 21.6009 72.1093 21.1606 71.3819C20.7203 70.6545 20.7203 70.0593 21.1606 70.0593C21.6009 70.0593 22.268 70.6545 22.6282 71.3819C23.0018 72.1093 23.0018 72.7045 22.6282 72.7045Z" fill="#CF3838" fill-opacity="0.97"/>
<path d="M25.2966 74.0271C24.9364 74.0271 24.6295 73.7361 24.6295 73.3658C24.6295 72.9955 24.9364 72.7045 25.2966 72.7045C25.6702 72.7045 25.9637 72.9955 25.9637 73.3658C25.9637 73.7361 25.6702 74.0271 25.2966 74.0271Z" fill="#CF3838" fill-opacity="0.97"/>
<path d="M21.294 75.3497C20.9338 75.3497 20.6269 75.0587 20.6269 74.6884C20.6269 74.318 20.9338 74.0271 21.294 74.0271C21.6676 74.0271 21.9611 74.318 21.9611 74.6884C21.9611 75.0587 21.6676 75.3497 21.294 75.3497Z" fill="#CF3838" fill-opacity="0.97"/>
<path d="M27.965 75.3497C27.6047 75.3497 27.2979 75.0587 27.2979 74.6884C27.2979 74.318 27.6047 74.0271 27.965 74.0271C28.3386 74.0271 28.6321 74.318 28.6321 74.6884C28.6321 75.0587 28.3386 75.3497 27.965 75.3497Z" fill="#CF3838" fill-opacity="0.97"/>
<path d="M23.9624 76.6722C23.6022 76.6722 23.2953 76.3813 23.2953 76.0109C23.2953 75.6406 23.6022 75.3497 23.9624 75.3497C24.336 75.3497 24.6295 75.6406 24.6295 76.0109C24.6295 76.3813 24.336 76.6722 23.9624 76.6722Z" fill="#CF3838" fill-opacity="0.97"/>
<path d="M32.1944 76.3416C31.7007 76.8839 30.8468 76.8706 30.2998 76.3019C29.7528 75.7332 30.1531 75.2968 31.1937 75.31C32.2344 75.3364 32.6747 75.7993 32.1944 76.3416Z" fill="#CF3838" fill-opacity="0.97"/>
<path d="M26.6308 77.9948C26.2705 77.9948 25.9637 77.7038 25.9637 77.3335C25.9637 76.9632 26.2705 76.6722 26.6308 76.6722C27.0044 76.6722 27.2979 76.9632 27.2979 77.3335C27.2979 77.7038 27.0044 77.9948 26.6308 77.9948Z" fill="#CF3838" fill-opacity="0.97"/>
<path d="M38.305 77.4393C37.3844 77.7435 35.8901 77.7435 34.9695 77.4393C34.0489 77.1351 34.8094 76.8839 36.6373 76.8839C38.4785 76.8839 39.2256 77.1351 38.305 77.4393Z" fill="#CF3838" fill-opacity="0.97"/>
<path d="M41.6005 78.9868C41.0268 79.529 40.5598 79.0926 40.5598 77.9948C40.5598 76.8971 41.0268 76.4606 41.6005 77.0029C42.1742 77.5451 42.1742 78.4445 41.6005 78.9868Z" fill="#CF3838" fill-opacity="0.97"/>
<path d="M29.0457 79.9655C27.7115 80.349 27.2045 80.0845 27.7782 79.3042C28.3252 78.5768 29.3392 77.9948 30.033 77.9948C30.7268 77.9948 31.3005 78.2858 31.3005 78.6561C31.3005 79.0264 30.2865 79.6084 29.0457 79.9655Z" fill="#CF3838" fill-opacity="0.97"/>
<path d="M38.305 80.0845C37.3844 80.3887 35.8901 80.3887 34.9695 80.0845C34.0489 79.7803 34.8094 79.529 36.6373 79.529C38.4785 79.529 39.2256 79.7803 38.305 80.0845Z" fill="#CF3838" fill-opacity="0.97"/>
<path d="M24.963 75.9977C21.1072 74.1858 18.0252 72.0565 18.1186 71.2761C18.1987 70.4826 18.6523 70.0594 19.1192 70.3371C19.5729 70.6148 23.5621 72.5194 27.965 74.5694C32.4746 76.6723 36.9842 77.9419 38.305 77.4923C39.5858 77.0426 40.6399 77.2674 40.6399 77.9948C40.6399 78.7223 38.6919 79.3174 36.3037 79.3042C33.9155 79.291 28.8189 77.8097 24.963 75.9977Z" fill="#EFC1C1"/>
<path d="M49.9793 23.1077C49.9793 20.2377 50.9932 17.4735 52.6476 15.8335C54.1153 14.3787 56.6636 13.1619 58.318 13.1355C59.9724 13.0958 62.7475 14.1406 64.4953 15.45C66.7901 17.1561 67.6841 19.1135 67.6841 22.4464C67.6841 25.7794 66.7901 27.7368 64.4953 29.4429C62.7475 30.7523 60.1192 31.7971 58.6515 31.7706C57.1839 31.7442 54.6356 30.8316 52.9812 29.7339C50.8198 28.2923 49.9793 26.4406 49.9793 23.1077Z" fill="#EFC1C1"/>
<path d="M10.1534 61.1319C9.3129 59.4919 8.61912 56.6748 8.61912 54.8497C8.61912 52.7864 9.37961 51.5432 10.6204 51.5432C11.7145 51.5432 13.529 52.879 14.6364 54.519C15.7437 56.159 16.6376 59.1348 16.6376 61.1319C16.6243 63.129 16.1707 65.0335 15.6237 65.3377C15.0766 65.6552 13.9559 65.5097 13.1554 65.0071C12.3415 64.5177 10.994 62.7719 10.1534 61.1319Z" fill="#EFC1C1"/>
</g>
</svg>
